<?xml version="1.0" standalone="no"?>
<!DOCTYPE svg PUBLIC "-//W3C//DTD SVG 20010904//EN" "http://www.w3.org/TR/2001/REC-SVG-20010904/DTD/svg10.dtd">
<svg version="1.0" xmlns="http://www.w3.org/2000/svg" width="500" height="500" viewBox="0 0 500.000000 500.000000"
    preserveAspectRatio="xMidYMid meet">

    <g transform="translate(0.000000,500.000000) scale(0.100000,-0.100000)" fill="#8a2027" stroke="none">
        <path d="M2543 3910 c-13 -5 -56 -31 -95 -58 -40 -27 -125 -79 -188 -117 -63
-38 -135 -83 -160 -100 -42 -30 -259 -167 -380 -242 -30 -18 -125 -78 -210
-132 l-155 -97 -3 -155 c-3 -176 0 -199 28 -199 19 0 20 7 20 149 0 128 2 152
18 168 29 33 1125 718 1147 717 11 -1 54 -24 95 -51 92 -60 642 -405 783 -490
147 -90 235 -146 260 -165 22 -16 22 -18 19 -315 -1 -164 2 -304 7 -312 5 -8
16 -11 30 -6 21 6 21 9 21 333 l-1 327 -47 31 c-26 18 -94 61 -152 96 -184
114 -462 288 -555 349 -49 32 -133 84 -185 115 -52 31 -133 81 -179 110 -46
30 -87 54 -90 53 -3 0 -16 -4 -28 -9z" />
        <path d="M2477 3366 c-9 -7 -36 -16 -59 -20 -23 -4 -54 -14 -70 -24 -29 -17
-68 -84 -68 -117 0 -35 41 -105 83 -141 52 -44 148 -94 182 -94 30 0 68 36 85
83 6 17 19 45 27 61 17 31 29 141 20 178 -8 29 -34 61 -64 76 -29 16 -114 15
-136 -2z m121 -66 c17 -16 22 -32 22 -68 -1 -52 -46 -169 -72 -186 -22 -13
-97 26 -155 80 -37 35 -43 46 -43 82 0 52 31 78 85 69 28 -5 36 -1 50 19 20
31 81 33 113 4z" />
        <path d="M2880 2907 c-42 -13 -103 -38 -135 -56 -72 -40 -189 -133 -211 -167
-9 -13 -21 -24 -26 -24 -6 0 -40 14 -75 32 l-64 31 -114 -113 -114 -114 -73
24 c-95 32 -215 32 -305 1 -34 -11 -71 -21 -81 -21 -10 0 -63 45 -118 100 -76
76 -105 99 -118 94 -43 -16 -79 -171 -91 -384 -3 -63 -9 -118 -13 -122 -4 -4
-47 -4 -94 0 -83 7 -128 2 -128 -15 1 -28 24 -36 116 -44 53 -5 102 -13 107
-18 12 -12 19 -112 9 -128 -4 -7 -43 -19 -86 -28 -98 -20 -125 -31 -133 -51
-13 -35 14 -39 108 -16 71 17 95 20 105 11 12 -10 14 -56 9 -267 -3 -162 -1
-261 6 -273 9 -18 43 -19 1202 -19 915 0 1196 3 1205 12 8 8 12 60 12 169 0
139 -2 158 -17 163 -34 13 -44 -21 -42 -145 1 -64 -1 -121 -5 -128 -5 -8 -300
-11 -1148 -11 -1131 0 -1140 0 -1145 20 -3 11 -9 20 -14 20 -5 0 -9 104 -9
230 0 147 4 230 10 230 6 0 10 7 10 15 0 8 12 17 28 21 82 17 107 29 110 52 3
20 -1 22 -35 21 -21 0 -47 -4 -58 -8 -29 -12 -45 -2 -45 25 0 13 -4 24 -10 24
-5 0 -10 7 -10 15 0 8 5 15 10 15 6 0 10 7 10 15 0 12 13 15 60 15 47 0 61 4
69 18 15 28 -6 42 -64 42 -38 0 -55 5 -68 20 -20 24 -23 66 -4 73 9 4 9 6 0 6
-15 1 -18 31 -3 31 6 0 10 26 10 58 0 51 11 140 26 215 3 15 10 27 16 27 6 0
52 -41 103 -90 l91 -90 61 24 c95 39 179 51 253 37 33 -7 82 -21 106 -32 25
-10 53 -19 62 -19 9 0 67 50 128 111 l112 112 34 -20 c18 -10 34 -26 36 -34 1
-9 -14 -45 -35 -80 -85 -142 -125 -285 -127 -454 -1 -129 10 -184 52 -270 38
-77 78 -121 134 -149 128 -64 265 -3 334 149 38 83 58 216 44 300 -21 129 -31
175 -41 175 -5 0 -9 9 -9 21 0 23 -48 116 -88 169 -32 43 -99 110 -131 133
-21 14 -23 19 -13 41 16 35 150 139 225 175 90 43 145 54 245 49 104 -5 194
-41 256 -104 45 -46 117 -152 140 -209 37 -87 116 -165 170 -165 9 0 25 -14
34 -31 30 -55 76 -102 120 -121 26 -12 42 -25 42 -36 0 -23 -78 -130 -120
-165 -74 -63 -105 -72 -235 -72 -106 0 -125 3 -163 23 -44 23 -108 82 -154
142 -25 33 -28 34 -44 18 -26 -26 -11 -59 58 -130 89 -91 178 -128 310 -128
54 0 72 -7 137 -57 68 -52 141 -42 182 24 15 24 19 41 14 63 -4 16 -10 30 -13
30 -4 0 -13 14 -21 31 -13 29 -12 32 18 63 17 17 31 37 31 44 0 7 4 12 9 12 4
0 22 31 40 68 27 60 31 79 31 153 0 53 -5 92 -13 103 -18 24 -79 36 -128 25
-98 -22 -187 14 -228 94 -8 15 -18 27 -23 27 -4 0 -8 7 -8 16 0 20 -61 134
-72 134 -4 0 -8 6 -8 14 0 22 -103 119 -157 148 -111 61 -236 72 -363 35z
m-274 -424 c124 -129 188 -283 188 -458 -1 -240 -129 -393 -278 -331 -45 19
-103 79 -122 127 -9 21 -20 39 -24 39 -4 0 -13 46 -20 103 -24 194 19 378 129
554 14 24 32 43 39 43 7 0 46 -35 88 -77z m1212 -115 c18 -18 15 -77 -4 -85
-22 -8 -83 28 -100 59 -12 24 -12 27 4 31 35 9 88 7 100 -5z m-94 -464 c16
-42 -48 -73 -85 -41 -42 35 -42 45 -3 65 34 17 41 18 60 5 12 -8 25 -21 28
-29z" />
        <path d="M3148 2529 c-32 -12 -44 -38 -26 -56 11 -10 20 -10 45 -1 25 9 40 9
71 -1 48 -16 72 -10 72 19 0 35 -105 61 -162 39z" />
        <path d="M1707 2264 c-4 -4 -7 -34 -7 -66 0 -59 0 -59 28 -56 26 3 27 5 27 63
0 53 -2 60 -20 63 -12 2 -24 0 -28 -4z" />
        <path d="M2047 2263 c-4 -3 -7 -33 -7 -65 0 -51 2 -58 20 -58 18 0 20 7 20 65
0 48 -4 65 -13 65 -8 0 -17 -3 -20 -7z" />
        <path d="M1712 2038 c-18 -18 -15 -49 8 -86 31 -51 89 -66 145 -36 27 14 33
14 67 -2 24 -11 48 -14 70 -10 35 7 78 42 78 63 0 7 5 13 10 13 17 0 12 57 -6
64 -24 9 -23 9 -44 -39 -17 -39 -23 -45 -50 -45 -23 0 -35 8 -52 35 -28 43
-47 44 -73 2 -11 -18 -31 -33 -43 -35 -27 -4 -62 23 -62 48 0 16 -18 40 -30
40 -3 0 -11 -5 -18 -12z" />
    </g>
</svg>